<svg xmlns="http://www.w3.org/2000/svg" width="64" height="64" viewBox="0 0 64 64"><path fill="#A5C85A" d="M0 0h64v64H0V0z"/><path fill="#FFF" d="M45.445 39.347h-18.6l-8.9 8v-8h-8.5v-31h36"/><path fill="#A5C85A" d="M33.146 11.347c.9 0 1.8.2 2.7.6.9.4 1.6.9 2.3 1.6.7.7 1.2 1.5 1.6 2.3.4.9.6 1.7.6 2.7 0 .9-.1 1.8-.4 2.6-.3.8-.8 1.6-1.4 2.2l-3.3 3.3-.3.3c-.6.5-1.3.9-2.1 1.2-.8.3-1.6.4-2.4.3-1.1 0-2.1-.3-3-.8-.7-.4-1.4-.8-2-1.4-.6-.6-1.1-1.3-1.4-2 .4-.4 1-.6 1.6-.6.2 0 .5 0 .7.1.4.6 1 1.2 1.6 1.6.8.5 1.6.7 2.4.8.6 0 1.2-.1 1.7-.3.6-.2 1-.5 1.5-.9l3.3-3.3c.4-.4.7-.9.9-1.5.2-.6.3-1.1.3-1.7s-.2-1.2-.4-1.8c-.3-.6-.6-1.1-1.1-1.6s-1-.8-1.6-1.1c-.6-.3-1.2-.4-1.8-.4-.6 0-1.2.1-1.7.3-.6.2-1.1.5-1.5 1l-2.3 2.3c-.8-.2-1.6-.4-2.4-.4h-.6l.3-.3 3.3-3.3c.6-.6 1.4-1.1 2.2-1.4 1-.3 1.8-.4 2.7-.4zm-7.7 7.8c1.1 0 2.1.3 3 .8.7.4 1.4.8 2 1.4s1.1 1.3 1.4 2c-.4.4-1 .6-1.602.6-.2 0-.5-.1-.7-.1-.4-.6-1-1.2-1.6-1.6-.8-.5-1.6-.7-2.4-.8-.6 0-1.2.1-1.7.3-.6.2-1 .5-1.5 1l-3.3 3.3c-.4.398-.7.898-1 1.5-.2.6-.3 1.1-.3 1.7 0 .6.2 1.198.4 1.8.3.6.6 1.1 1.1 1.6s1 .8 1.6 1.1c.6.3 1.2.4 1.8.4.6 0 1.2-.1 1.7-.3.6-.2 1.1-.5 1.5-.9l2.3-2.3c.8.2 1.6.4 2.4.4h.6l-.3.3-3.3 3.3c-.6.6-1.4 1.1-2.2 1.4-.9.2-1.7.3-2.6.3-.9 0-1.8-.2-2.7-.6-.9-.4-1.6-.9-2.3-1.602-.7-.7-1.2-1.5-1.6-2.3-.4-.9-.6-1.7-.6-2.7 0-.9.1-1.8.4-2.6.3-.8.8-1.6 1.4-2.2l3.3-3.3.3-.3c.6-.5 1.3-1 2.1-1.2.7-.298 1.5-.498 2.4-.4z"/><circle fill="#C83C14" cx="42.228" cy="42.128" r="14.282"/><path fill="none" stroke="#FFF" stroke-width="3" stroke-linecap="round" stroke-miterlimit="10" d="M33.6 42.13h16.97"/></svg>