<?xml version="1.0" encoding="iso-8859-1"?>
<svg version="1.1" id="Layer_1" xmlns="http://www.w3.org/2000/svg" xmlns:xlink="http://www.w3.org/1999/xlink" x="0px" y="0px"
	 viewBox="0 0 509.287 509.287" style="enable-background:new 0 0 509.287 509.287;" xml:space="preserve">
<circle style="fill:#FEFEFE;" cx="254.644" cy="254.644" r="254.644"/>
<rect x="87.82" y="94.94" style="fill:#AAAAAA;" width="26.109" height="285.499"/>
<path style="fill:#C83C14;" d="M120.371,380.44H81.377c-9.155,0-16.615,7.46-16.615,16.615v17.293h72.223v-17.293
	C136.985,387.899,129.526,380.44,120.371,380.44z"/>
<rect x="395.359" y="94.94" style="fill:#AAAAAA;" width="26.109" height="285.499"/>
<path style="fill:#C83C14;" d="M427.91,380.44h-38.993c-9.155,0-16.615,7.46-16.615,16.615v17.293h72.223v-17.293
	C444.525,387.899,437.065,380.44,427.91,380.44z"/>
<rect x="64.763" y="119.015" style="fill:#C83C14;" width="379.762" height="97.653"/>
	<polygon style="fill:#AAAAAA;" points="444.525,119.015 422.824,119.015 350.262,216.668 405.87,216.668 444.525,164.789"/>
	<polygon style="fill:#AAAAAA;" points="299.401,216.668 243.793,216.668 316.355,119.015 371.963,119.015"/>
	<polygon style="fill:#AAAAAA;" points="192.932,216.668 137.325,216.668 209.886,119.015 265.494,119.015"/>
	<polygon style="fill:#AAAAAA;" points="103.417,119.015 64.763,170.893 64.763,216.668 86.464,216.668 159.025,119.015"/>
</svg>
